<?xml version="1.0" encoding="utf-8"?>
<!-- Generator: Adobe Illustrator 18.1.0, SVG Export Plug-In . SVG Version: 6.00 Build 0)  -->
<svg version="1.1" id="Layer_1" xmlns="http://www.w3.org/2000/svg" xmlns:xlink="http://www.w3.org/1999/xlink" x="0px" y="0px"
	 viewBox="0 0 730.8 902.6" enable-background="new 0 0 730.8 902.6" xml:space="preserve">
<path d="M542.5,3.8C530.3,373.7,215.7,572.3,156.4,605c12.8-2.6,62.3-14.6,72-18.5C255.9,565.4,563.7,342.3,542.5,3.8z"/>
<path d="M235.8,589.2c2.3-0.7,31.4-11.5,59.3-21.4C391,486,578,271,563.1,58C543.5,361,277.3,558.5,235.8,589.2z"/>
<path d="M349.3,551l-47.3,23c67.9-54.5,235.3-228,276.8-436.7C543.5,368.3,388.9,517,349.3,551z"/>
<path d="M364,549.7l35.4-17.1c75.6-74.6,170-224.3,190.4-343C543.5,363,421,493.7,364,549.7z"/>
<path d="M439.6,515.3l-25.1,13.7c45-52.1,134.5-155.6,186.7-303.9C578.5,336.3,472,476.7,439.6,515.3z"/>
<path d="M601.1,267.3c-17.9,65.9-90.4,172.2-141,235.8l19.7-11.9C523.3,436,591,327.5,601.1,267.3z"/>
<g id="Sarif">
	<path d="M139.9,765.9c-4-0.7-7.9-2-11.6-3.7c-1.3-0.6-2.1-1.3-2.3-2c-0.2-0.8-0.4-2.3-0.4-4.7c0-4.5,0.1-8.4,0.4-11.7
		c0.2-3.3,0.4-5.7,0.5-7.1c0.1-1.9,0.6-2.8,1.4-2.8c0.8,0,1.2,0.7,1.2,2c0,0.8,0,1.8,0.1,2.9c0.1,1.1,0.2,2.3,0.4,3.6
		c0.7,3.3,1.9,6.1,3.6,8.5c1.7,2.3,3.7,4.2,6.1,5.6c2.4,1.4,5.1,2.5,7.9,3.1c2.8,0.7,5.8,1,8.7,1c4.3,0,8-0.7,11.2-2.1
		s5.8-3.2,7.9-5.4c2.1-2.2,3.6-4.7,4.7-7.6c1.1-2.8,1.6-5.7,1.6-8.5c0-3.1-0.4-5.9-1.1-8.5c-0.7-2.5-1.9-5-3.5-7.5
		c-1.6-2.4-3.7-4.9-6.3-7.5c-2.6-2.6-5.8-5.4-9.6-8.6l-8-6.6c-4.7-3.9-8.6-7.5-11.6-10.9c-3-3.3-5.3-6.6-7-9.7
		c-1.7-3.1-2.9-6.2-3.6-9.1c-0.7-2.9-1-5.9-1-9c0-4.7,0.9-9.1,2.6-13c1.7-3.9,4.2-7.3,7.4-10.1c3.2-2.8,7.1-5,11.6-6.6
		c4.5-1.5,9.6-2.3,15.3-2.3c3.4,0,6.5,0.2,9.2,0.4c2.7,0.3,5.1,0.7,7.4,1.3c1.7,0.4,2.9,0.6,3.8,0.7c0.9,0.1,1.7,0.2,2.4,0.2
		c1.2,0,1.8,0.4,1.8,1.2c0,0.5-0.1,2.2-0.4,5.3c-0.2,3-0.4,7.6-0.4,13.6c0,2.7-0.4,4.1-1.2,4.1c-0.6,0-1-0.2-1.1-0.6
		c-0.1-0.4-0.2-1-0.4-1.7c-0.1-1.1-0.4-2.6-0.8-4.5c-0.4-2-0.9-3.4-1.5-4.4c-0.2-0.5-0.8-1.2-1.6-2.3c-0.8-1.1-2.1-2.1-3.8-3.2
		c-1.7-1.1-3.9-2-6.7-2.8c-2.7-0.8-6.1-1.2-10.1-1.2c-6.2,0-11.4,1.8-15.6,5.4c-4.2,3.6-6.3,8.7-6.3,15.2c0,2.5,0.3,4.8,1,7
		c0.7,2.2,1.8,4.4,3.5,6.7c1.7,2.3,3.9,4.7,6.7,7.3c2.8,2.6,6.3,5.6,10.6,8.9l5,3.9c5.2,4.2,9.5,8,12.9,11.6c3.4,3.6,6.1,7,8,10.2
		c2,3.3,3.3,6.5,4,9.8c0.7,3.3,1.1,6.7,1.1,10.2c0,1.8-0.2,3.9-0.6,6.4c-0.4,2.5-1.2,5.1-2.3,7.8c-1.1,2.7-2.7,5.4-4.6,8.1
		s-4.5,5.1-7.6,7.2c-3.8,2.7-8,4.7-12.6,5.8c-4.6,1.1-9.4,1.7-14.2,1.7C148,766.9,143.9,766.6,139.9,765.9z"/>
	<path d="M260.9,653c0.9-2.5,1.7-4.1,2.1-4.8c0.5-0.7,1-1.1,1.6-1.1c0.8,0,1.5,0.5,1.9,1.5c0.4,1,1,2.3,1.9,4
		c0.5,1.1,1.5,3.6,3.1,7.5c1.6,3.9,3.5,8.6,5.8,14.2c2.3,5.5,4.7,11.6,7.4,18.2s5.3,13.1,7.9,19.5c2.6,6.4,5.1,12.5,7.4,18.2
		c2.3,5.8,4.3,10.5,6,14.3c1.4,3.4,2.8,6.2,4,8.2c1.2,2,2.4,3.6,3.6,4.8c1.1,1.2,2.2,2,3.1,2.5c0.9,0.5,1.8,0.8,2.7,1.1
		c1.2,0.4,2.3,0.6,3.4,0.7c1.1,0.1,2,0.2,2.8,0.2c0.5,0,0.9,0.1,1.3,0.3c0.4,0.2,0.6,0.5,0.6,1c0,0.5-0.4,0.8-1.1,1
		c-0.7,0.2-1.5,0.3-2.5,0.3c-0.6,0-1.7,0-3.4,0c-1.5,0-3.5,0-5.9,0c-2.3,0-4.7,0-7.4-0.1c-2.7-0.1-5.4-0.2-8.1-0.3
		c-1.5-0.1-2.8-0.2-3.9-0.3c-1.1-0.1-1.6-0.3-1.6-0.8c0-0.4,0.1-0.6,0.3-0.6c0.2-0.1,0.4-0.2,0.8-0.4c0.5-0.2,1-0.7,1.5-1.2
		c0.5-0.6,0.5-1.5-0.1-2.8l-14.1-34.7c-0.4-0.6-0.8-0.9-1.4-0.9h-36.1c-0.7,0-1.2,0.4-1.6,1.2l-8.9,24.2c-1.5,4-2.3,7.4-2.3,10.1
		c0,1.5,0.6,2.6,1.7,3.2c1.1,0.6,2.3,0.9,3.6,0.9h1.4c1.1,0,1.6,0.4,1.6,1.2s-0.8,1.2-2.3,1.2c-1,0-2.1,0-3.6-0.1
		c-1.4-0.1-2.8-0.1-4.3-0.2c-1.4-0.1-2.7-0.1-3.8-0.2c-1.1-0.1-1.9-0.1-2.4-0.1c-0.4,0-1.1,0-2.2,0.1c-1.1,0.1-2.4,0.1-3.9,0.2
		c-1.5,0.1-3.1,0.1-4.8,0.2c-1.7,0.1-3.4,0.1-4.9,0.1c-2,0-3-0.4-3-1.2s0.5-1.2,1.4-1.2c0.6,0,1.4,0,2.3-0.1
		c0.9-0.1,1.7-0.1,2.3-0.3c3.6-0.5,6.3-2,8.1-4.4c1.8-2.5,3.5-5.6,5.1-9.4L260.9,653z M278.3,716c0.5,0,0.7-0.4,0.5-1.1l-15.5-41.5
		c-1-2.3-1.8-2.3-2.7,0L246.1,715c-0.2,0.7-0.1,1.1,0.5,1.1H278.3z"/>
	<path d="M350.1,693.8c0-5.8,0-10.6,0-14.2c0-3.7,0-6.6,0-8.9c0-2.4,0-4.2-0.1-5.6c-0.1-1.4-0.2-2.6-0.3-3.8
		c-0.2-2.6-0.7-4.6-1.4-5.9c-0.7-1.3-2.4-2.1-5-2.5c-0.6-0.1-1.5-0.2-2.6-0.3c-1.1-0.1-2-0.1-2.8-0.1c-0.8,0-1.2-0.4-1.2-1.2
		c0-0.8,0.8-1.2,2.5-1.2c1.8,0,3.7,0,5.8,0.1c2.1,0.1,4,0.1,5.8,0.1c1.8,0,3.3,0,4.6,0.1c1.3,0.1,2.1,0.1,2.3,0.1c0.4,0,1.4,0,3-0.1
		c1.7-0.1,3.5-0.1,5.5-0.1c2,0,4.1,0,6.1-0.1c2.1-0.1,3.7-0.1,4.9-0.1c5,0,10.1,0.4,15.2,1.2c5.2,0.8,9.8,2.6,14,5.4
		c0.9,0.7,2,1.7,3.3,2.9c1.2,1.2,2.4,2.8,3.6,4.5c1.1,1.8,2.1,3.8,2.8,6c0.8,2.2,1.2,4.6,1.2,7.2c0,5.6-1.4,11.2-4.2,16.8
		c-2.8,5.6-7.8,11.5-15,17.7c6.4,8.1,12.3,15.4,17.8,22.1c5.5,6.6,10.4,12.3,15,17.1c4.2,4.3,7.6,7,10.3,8.3c2.7,1.2,5.1,2,7.1,2.2
		c1.5,0.2,2.7,0.4,3.6,0.4c0.8,0.1,1.5,0.1,2,0.1c0.9,0,1.4,0.4,1.4,1.2c0,0.5-0.3,0.8-0.8,1c-0.5,0.2-1.5,0.3-2.9,0.3h-9.8
		c-4.5,0-7.9-0.2-10.2-0.7c-2.3-0.5-4.5-1.2-6.5-2.3c-3.4-1.8-6.7-4.5-9.9-8.2c-3.1-3.7-7-8.4-11.5-14.1c-1.7-2-3.3-4.1-5-6.3
		c-1.7-2.2-3.2-4.3-4.7-6.2c-1.5-2-2.8-3.8-4.1-5.4c-1.2-1.7-2.3-3-3.1-4.1c-0.6-0.6-1.3-0.9-2.1-0.9l-19.9-0.4
		c-0.7,0-1.1,0.4-1.1,1.2v3.6c0,7.4,0,13.9,0.1,19.5c0.1,5.6,0.3,10,0.6,13.1c0.2,2.3,0.7,4.1,1.5,5.4c0.8,1.4,2.3,2.2,4.7,2.6
		c1.1,0.2,2.3,0.4,3.7,0.5c1.4,0.1,2.5,0.2,3.2,0.2c0.8,0,1.2,0.4,1.2,1.2s-0.8,1.2-2.5,1.2c-2.1,0-4.3,0-6.5-0.1
		c-2.2-0.1-4.2-0.1-6.1-0.2c-1.8-0.1-3.4-0.1-4.6-0.2c-1.2-0.1-1.9-0.1-2-0.1c-2.4,0.1-4.4,0.2-6,0.3c-1.6,0.1-3.3,0.1-5.1,0.2
		c-1.8,0.1-3.3,0.1-4.5,0.1c-1.7,0-2.5-0.4-2.5-1.2s0.4-1.2,1.2-1.2c0.7,0,1.5-0.1,2.4-0.2c0.9-0.1,1.7-0.3,2.4-0.5
		c1.5-0.4,2.5-1.2,2.9-2.6c0.4-1.4,0.8-3.2,1.2-5.4c0.5-3.1,0.7-7.5,0.8-13.2c0.1-5.7,0.1-12.2,0.1-19.6V693.8z M363.6,706.6
		c0,0.8,0.4,1.5,1.1,2c0.6,0.4,1.5,0.7,2.7,0.9c1.2,0.2,2.6,0.5,4.2,0.7c1.6,0.2,3.3,0.4,5.1,0.5c1.8,0.1,3.6,0.2,5.3,0.2
		c1.9,0,3.9-0.1,5.9-0.4c2-0.2,4-1,5.9-2.3c2.7-1.8,5-4.6,6.8-8.5s2.7-8.8,2.7-14.6c0-9.5-2.4-16.8-7.2-22
		c-4.8-5.2-11.4-7.7-19.8-7.7c-2.4,0-4.6,0.1-6.8,0.3c-2.1,0.2-3.6,0.4-4.5,0.6c-0.8,0.5-1.2,1.1-1.2,1.8V706.6z"/>
	<path d="M485,720.5c0,7.4,0,13.9,0.1,19.6c0.1,5.7,0.3,10.1,0.6,13.2c0.2,2.3,0.7,4.1,1.2,5.4c0.6,1.4,2.1,2.2,4.5,2.6
		c1.2,0.2,2.5,0.4,3.9,0.5c1.4,0.1,2.5,0.2,3.2,0.2c0.8,0,1.2,0.4,1.2,1.2s-0.8,1.2-2.5,1.2c-2.1,0-4.3,0-6.6-0.1
		c-2.3-0.1-4.3-0.1-6.2-0.2c-1.9-0.1-3.5-0.1-4.7-0.2c-1.2-0.1-1.9-0.1-2-0.1c-0.2,0-1,0-2.1,0.1c-1.2,0.1-2.6,0.1-4.2,0.2
		c-1.6,0.1-3.2,0.1-4.9,0.2c-1.7,0.1-3.1,0.1-4.3,0.1c-1.7,0-2.5-0.4-2.5-1.2s0.4-1.2,1.2-1.2c0.7,0,1.5-0.1,2.4-0.2
		c0.9-0.1,1.7-0.3,2.4-0.5c1.5-0.4,2.5-1.2,3-2.6c0.5-1.4,0.8-3.2,1.1-5.4c0.4-3.1,0.6-7.5,0.7-13.2c0.1-5.7,0.2-12.2,0.2-19.6
		v-26.7c0-5.8,0-10.6,0-14.2c0-3.7,0-6.6,0-8.9c0-2.4,0-4.2-0.1-5.6c-0.1-1.4-0.2-2.6-0.3-3.8c-0.2-2.6-0.7-4.5-1.4-5.8
		c-0.7-1.2-1.9-2-3.6-2.4c-1-0.2-1.8-0.4-2.7-0.4c-0.8-0.1-1.5-0.1-2.1-0.1c-0.8,0-1.2-0.4-1.2-1.2c0-0.8,0.8-1.2,2.5-1.2
		c1.3,0,2.8,0,4.5,0.1c1.7,0.1,3.4,0.1,4.9,0.1c1.7,0,3.1,0,4.3,0.1c1.2,0.1,1.9,0.1,2.1,0.1c0.1,0,0.8,0,2-0.1
		c1.2-0.1,2.6-0.1,4.2-0.1c1.7,0,3.4,0,5.1-0.1c1.7-0.1,3.2-0.1,4.4-0.1c1.7,0,2.5,0.4,2.5,1.2c0,0.8-0.4,1.2-1.2,1.2
		c-0.6,0-1.2,0-1.8,0c-0.5,0-1.2,0.1-2.1,0.4c-2.1,0.5-3.5,1.3-4.2,2.5c-0.7,1.2-1.1,3.1-1.3,5.9c0,1.2,0,2.5-0.1,3.8
		c-0.1,1.4-0.1,3.2-0.1,5.6c0,2.3,0,5.2,0,8.9c0,3.7,0,8.4,0,14.2V720.5z"/>
	<path d="M538,693.8c0-5.8,0-10.6,0-14.2c0-3.7,0-6.6,0-8.9c0-2.4,0-4.2-0.1-5.6c-0.1-1.4-0.2-2.6-0.3-3.8c-0.2-2.6-0.7-4.6-1.4-5.9
		c-0.7-1.3-2.4-2.1-5-2.5c-0.6-0.1-1.5-0.2-2.6-0.3c-1.1-0.1-2-0.1-2.8-0.1c-0.8,0-1.2-0.4-1.2-1.2c0-0.8,0.8-1.2,2.5-1.2
		c1.8,0,3.7,0,5.7,0.1c2,0.1,3.9,0.1,5.5,0.1c1.8,0,3.3,0,4.5,0.1c1.2,0.1,1.9,0.1,2.1,0.1c0.5,0,1.7,0,3.7,0c2.1,0,4.6,0,7.3,0
		c2.8,0,5.9,0,9.1,0c3.2,0,6.2,0,9.1,0c2.8,0,5.3,0,7.3,0c2.1,0,3.5,0,4.1,0c1.5-0.1,2.9-0.2,4.2-0.3c1.2-0.1,2.2-0.2,2.9-0.4
		c0.5-0.1,0.9-0.3,1.2-0.5c0.4-0.2,0.7-0.4,0.9-0.4c0.7,0,1.1,0.5,1.1,1.4c0,0.6-0.2,1.4-0.4,2.4c-0.3,1-0.6,2.6-0.8,4.7
		c0,0.4,0,1-0.1,1.9c-0.1,0.9-0.1,1.9-0.2,2.9c-0.1,1.1-0.1,2.1-0.2,3c-0.1,1-0.2,1.7-0.3,2.1c-0.1,0.4-0.3,0.7-0.5,1.1
		c-0.2,0.4-0.5,0.5-0.9,0.5c-0.8,0-1.2-0.6-1.2-1.8c0-0.6-0.1-1.5-0.4-2.6c-0.2-1.1-0.6-2.2-1.1-3.1c-0.5-0.9-1.6-1.9-3.4-2.9
		c-1.8-1-4.2-1.5-7.3-1.5l-25.6-0.4c-0.8,0-1.2,0.5-1.2,1.6v41.3c0,0.5,0,0.8,0.1,1.1c0.1,0.2,0.4,0.4,1,0.4l21.4-0.2
		c1.3,0,2.6,0,3.7,0c1.2,0,2.3-0.1,3.4-0.2c1.9-0.2,3.4-0.5,4.5-0.8c1.1-0.3,2-0.9,2.8-1.9c0.8-1.1,1.5-1.6,2-1.6
		c0.6,0,0.9,0.4,0.9,1.2c0,0.5-0.2,1.4-0.5,2.7c-0.4,1.3-0.7,3.2-0.9,5.7c-0.2,1.5-0.4,3.5-0.4,5.8c-0.1,2.3-0.1,3.8-0.1,4.4
		c0,0.7-0.1,1.4-0.3,2c-0.2,0.7-0.6,1-1.2,1c-0.7,0-1.1-0.5-1.1-1.4c-0.1-0.8-0.2-1.7-0.4-2.7c-0.1-0.9-0.4-1.9-0.7-2.8
		c-0.4-1.1-1.2-2-2.5-2.9c-1.3-0.9-3.1-1.5-5.5-1.9c-1-0.1-2.7-0.2-5.2-0.3c-2.5-0.1-5.1-0.1-7.8-0.1c-2.7,0-5.3,0-7.7,0
		c-2.3,0-3.7,0-4.4,0c-0.7,0-1.1,0.5-1.1,1.4v12.1c0,7.5,0,14.1,0.1,19.8c0.1,5.7,0.3,10,0.6,13c0.2,2.3,0.7,4.1,1.4,5.4
		c0.7,1.4,2.1,2.2,4.3,2.6c1.2,0.2,2.5,0.4,3.9,0.5c1.4,0.1,2.5,0.2,3.2,0.2c0.8,0,1.2,0.4,1.2,1.2s-0.8,1.2-2.5,1.2
		c-2.1,0-4.3,0-6.6-0.1c-2.3-0.1-4.3-0.1-6.2-0.2c-1.9-0.1-3.5-0.1-4.7-0.2c-1.2-0.1-1.9-0.1-2-0.1c-0.2,0-1,0-2.1,0.1
		c-1.2,0.1-2.6,0.1-4.2,0.2c-1.6,0.1-3.2,0.1-4.9,0.2c-1.7,0.1-3.1,0.1-4.3,0.1c-1.7,0-2.5-0.4-2.5-1.2s0.4-1.2,1.2-1.2
		c0.7,0,1.5-0.1,2.4-0.3c0.9-0.2,1.7-0.3,2.4-0.4c1.5-0.2,2.5-1.1,2.9-2.5c0.4-1.4,0.8-3.3,1.2-5.5c0.5-3.1,0.7-7.5,0.8-13.2
		c0.1-5.7,0.1-12.2,0.1-19.6V693.8z"/>
</g>
<g id="Indeustries">
	<path d="M32.2,838c0,5.7,0,10.8,0.1,15.3c0,4.5,0.2,8,0.5,10.5c0.2,1.7,0.5,3.2,1.1,4.4c0.6,1.2,1.7,1.9,3.6,2.1
		c0.9,0.2,1.8,0.3,2.9,0.4c1.1,0.1,1.9,0.1,2.4,0.1c0.6,0,1,0.2,1,0.7c0,0.6-0.6,1-1.9,1c-1.7,0-3.3,0-5-0.1c-1.7,0-3.2-0.1-4.6-0.1
		c-1.4,0-2.5-0.1-3.5-0.1c-0.9,0-1.4-0.1-1.6-0.1c-0.2,0-0.7,0-1.6,0.1c-0.9,0-2,0.1-3.2,0.1c-1.2,0-2.4,0.1-3.7,0.1
		c-1.3,0-2.3,0.1-3.2,0.1c-1.3,0-1.9-0.3-1.9-1c0-0.5,0.3-0.7,1-0.7c0.6,0,1.1,0,1.8-0.1c0.6-0.1,1.2-0.2,1.8-0.4
		c1.2-0.2,2-1,2.4-2.1c0.4-1.2,0.8-2.7,1-4.4c0.3-2.5,0.5-6,0.5-10.5c0-4.5,0.1-9.6,0.1-15.3v-20.9c0-4.6,0-8.4,0-11.3
		c0-2.9,0-5.3,0-7c0-1.8,0-3.3-0.1-4.3c0-1.1-0.1-2.1-0.2-3c-0.2-3.9-1.6-6.1-4-6.7c-0.6-0.2-1.3-0.3-2-0.4
		c-0.7-0.1-1.3-0.1-1.7-0.1c-0.6,0-1-0.2-1-0.7c0-0.6,0.6-1,1.9-1c1,0,2.1,0,3.5,0.1c1.3,0,2.6,0.1,3.8,0.1c1.2,0,2.2,0.1,3.2,0.1
		c0.9,0,1.4,0.1,1.6,0.1c0.2,0,0.7,0,1.6-0.1c0.9,0,2-0.1,3.2-0.1c1.2,0,2.4-0.1,3.7-0.1c1.3,0,2.3-0.1,3.2-0.1c1.3,0,1.9,0.3,1.9,1
		c0,0.5-0.3,0.7-1,0.7c-0.4,0-0.8,0-1.2,0.1c-0.4,0-1,0.1-1.7,0.3c-1.6,0.3-2.7,1-3.3,2.1c-0.6,1.1-1,2.6-1.1,4.7
		c-0.1,1-0.1,2-0.2,3c0,1.1-0.1,2.5-0.1,4.3c0,1.7,0,4.1,0,7c0,2.9,0,6.7,0,11.3V838z"/>
	<path d="M76.2,858.7c0.1,2.1,0.2,3.8,0.4,5.2c0.2,1.4,0.4,2.5,0.7,3.5c0.3,0.9,0.7,1.6,1.2,2c0.5,0.4,1.1,0.7,1.8,0.9
		c1,0.2,1.9,0.4,3,0.5c1,0.1,1.8,0.1,2.3,0.1c0.6,0,0.8,0.3,0.8,0.8c0,0.6-0.6,0.8-1.9,0.8c-3,0-5.5-0.1-7.4-0.2
		c-1.9-0.1-3.2-0.2-3.6-0.2c-0.5,0-1.7,0.1-3.6,0.2c-1.9,0.1-4.1,0.2-6.5,0.2c-1.1,0-1.7-0.3-1.7-0.8c0-0.6,0.3-0.8,0.8-0.8
		c0.4,0,1,0,1.8-0.1c0.8-0.1,1.6-0.2,2.4-0.5c0.6-0.2,1.1-0.5,1.5-1c0.4-0.5,0.7-1.2,0.9-2.1c0.2-1,0.3-2.2,0.4-3.7
		c0.1-1.5,0.1-3.5,0.1-5.8v-58c0-2.1,0.1-3.4,0.4-4.1c0.3-0.7,0.6-1,1-1c0.6,0,1.3,0.4,2.1,1.1c0.8,0.8,1.4,1.4,2,2
		c0.4,0.4,1.6,1.6,3.6,3.7c2,2.1,4.5,4.7,7.5,7.9c3,3.2,6.4,6.7,10.2,10.7c3.8,4,7.7,8,11.8,12.1c2.6,2.7,5.2,5.4,7.8,8.2
		c2.6,2.7,5,5.3,7.3,7.7c2.3,2.4,4.2,4.5,5.9,6.3c1.7,1.8,3,3.1,3.7,3.9l-1.1-50.7c-0.1-3.3-0.4-5.6-0.8-6.9
		c-0.5-1.3-1.5-2.2-3.1-2.5c-1-0.2-1.9-0.3-3-0.4c-1-0.1-1.7-0.1-2.1-0.1c-0.4,0-0.6-0.1-0.7-0.4c-0.1-0.2-0.1-0.4-0.1-0.6
		c0-0.5,0.7-0.7,2-0.7c2.4,0,4.6,0,6.8,0.1c2.1,0.1,3.5,0.1,4.2,0.1c0.6,0,1.7,0,3.3-0.1c1.6-0.1,3.5-0.1,5.6-0.1
		c1.3,0,1.9,0.2,1.9,0.7c0,0.2-0.1,0.4-0.3,0.6c-0.2,0.2-0.5,0.4-0.9,0.4c-0.2,0-0.6,0-1,0c-0.4,0-0.9,0.1-1.5,0.2
		c-0.9,0.2-1.5,0.4-2,0.8c-0.5,0.4-0.8,0.9-1.1,1.6c-0.2,0.7-0.4,1.5-0.5,2.6c-0.1,1-0.1,2.3-0.1,3.8l-0.2,59.3c0,1.7,0,3-0.1,3.9
		c0,1-0.1,1.7-0.1,2.2c0,0.5-0.1,0.8-0.2,1c-0.1,0.1-0.3,0.2-0.4,0.2c-0.2,0-0.5-0.1-0.8-0.2c-0.3-0.2-0.8-0.5-1.4-0.9
		c-0.6-0.4-1.4-1.1-2.3-1.8c-0.9-0.8-2.1-1.9-3.5-3.2c-0.2-0.2-1.3-1.2-3.2-3c-1.9-1.8-4.1-4-6.7-6.7c-2.6-2.7-5.5-5.6-8.6-8.7
		c-3.1-3.1-6-6.1-8.8-9c-3-3.2-6-6.3-8.9-9.3c-2.9-3.1-5.6-5.9-8-8.4c-2.5-2.6-4.6-4.8-6.4-6.7c-1.8-1.9-3.1-3.3-3.9-4.2L76.2,858.7
		z"/>
	<path d="M170.9,825.3c0-3.9,0-7.1,0-9.5c0-2.5,0-4.4,0-6c0-1.6,0-2.8-0.1-3.7c0-0.9-0.1-1.8-0.2-2.6c-0.2-1.7-0.5-3.1-1-3.9
		c-0.5-0.9-1.6-1.4-3.3-1.7c-0.4-0.1-1-0.1-1.7-0.2c-0.8,0-1.4-0.1-1.8-0.1c-0.6,0-0.8-0.3-0.8-0.8c0-0.6,0.6-0.8,1.7-0.8
		c1.2,0,2.5,0,3.8,0.1c1.3,0,2.6,0.1,3.8,0.1c1.2,0,2.2,0,3,0.1c0.8,0,1.3,0.1,1.5,0.1c0.3,0,0.9,0,1.8-0.1c0.9,0,2-0.1,3.3-0.1
		c1.3,0,2.8,0,4.3-0.1c1.5,0,3.1-0.1,4.6-0.1c2.6,0,5.7,0,9.2,0.1c3.5,0,7.2,0.4,11.1,1c3.8,0.6,7.7,1.8,11.4,3.4
		c3.8,1.6,7.2,4,10.3,7.1c2.6,2.6,5,6.1,7.1,10.3c2.1,4.2,3.2,9.4,3.2,15.4c0,3.2-0.3,6.2-1,9c-0.6,2.8-1.5,5.4-2.5,7.8
		c-1,2.4-2.2,4.5-3.6,6.5c-1.4,1.9-2.8,3.7-4.2,5.2c-1.1,1.2-2.6,2.5-4.3,3.8c-1.8,1.3-4,2.6-6.5,3.7c-2.6,1.2-5.6,2.1-9,2.9
		c-3.5,0.8-7.4,1.2-11.8,1.2c-2.3,0-4.7-0.1-7.3-0.2c-2.6-0.1-5-0.3-7.3-0.4c-2.3-0.2-4.2-0.3-5.8-0.4c-1.6-0.1-2.5-0.2-2.7-0.2
		c-0.2,0-0.6,0-1.4,0.1c-0.8,0-1.7,0.1-2.9,0.1c-1.1,0.1-2.2,0.1-3.3,0.2c-1.1,0-2.1,0.1-3,0.1c-1.1,0-1.7-0.3-1.7-0.8
		c0-0.6,0.3-0.8,0.8-0.8c0.5,0,1,0,1.6-0.1c0.6-0.1,1.1-0.2,1.6-0.4c1-0.2,1.7-0.8,2-1.7c0.3-0.9,0.5-2.1,0.8-3.6
		c0.3-2.1,0.5-5,0.5-8.8c0-3.8,0.1-8.2,0.1-13.1V825.3z M180.4,836.2c0,2.7,0,5.3,0,7.7c0,2.5,0,4.7,0,6.7c0,1.9,0,3.5,0.1,4.9
		c0,1.3,0.1,2.3,0.1,2.7c0.1,1.3,0.2,2.7,0.4,4.2c0.2,1.5,0.4,2.5,0.8,3.1c0.3,0.5,0.8,1,1.5,1.4c0.7,0.5,1.7,0.9,3,1.3
		c1.3,0.4,3,0.7,5.1,1c2.1,0.2,4.6,0.4,7.7,0.4c4.8,0,9.3-0.8,13.5-2.3s7.8-3.8,11-6.8c1.3-1.3,2.5-2.8,3.6-4.6
		c1-1.8,1.9-3.7,2.6-5.8c0.7-2.1,1.2-4.3,1.5-6.7c0.4-2.3,0.5-4.7,0.5-7c0-3.2-0.3-6.1-1-8.7c-0.6-2.7-1.4-5-2.4-7.1
		c-1-2.1-2-3.9-3.2-5.5s-2.3-2.9-3.3-4c-2.5-2.5-5-4.4-7.7-6c-2.7-1.5-5.4-2.7-8.3-3.5c-2.9-0.8-5.8-1.3-8.8-1.5
		c-3-0.2-6.1-0.4-9.2-0.4c-1,0-2.2,0.1-3.6,0.2c-1.4,0.2-2.3,0.3-2.7,0.5c-0.9,0.3-1.3,1-1.3,2V836.2z"/>
	<path d="M261.8,825.3c0-3.9,0-7.1,0-9.5c0-2.5,0-4.4,0-6c0-1.6,0-2.8-0.1-3.7c0-0.9-0.1-1.8-0.2-2.6c-0.2-1.6-0.5-2.9-1-3.8
		s-1.6-1.5-3.3-1.8c-0.4-0.1-1-0.1-1.7-0.2c-0.8,0-1.4-0.1-1.8-0.1c-0.6,0-0.8-0.3-0.8-0.8c0-0.6,0.6-0.8,1.7-0.8
		c1.2,0,2.4,0,3.7,0.1c1.3,0,2.5,0.1,3.6,0.1c1.2,0,2.2,0,3,0.1c0.8,0,1.4,0.1,1.6,0.1c0.2,0,0.8,0,1.6-0.1c0.8,0,1.8-0.1,2.8-0.1
		c1.1,0,2.2,0,3.3-0.1c1.1,0,2.1-0.1,2.9-0.1c1.2,0,1.8,0.3,1.8,0.8c0,0.6-0.3,0.8-1,0.8c-0.4,0-0.8,0-1.2,0c-0.3,0-0.8,0.1-1.4,0.2
		c-1.3,0.2-2.2,0.8-2.7,1.7c-0.4,0.9-0.7,2.2-0.9,3.9c-0.1,0.8-0.1,1.6-0.2,2.6c0,0.9-0.1,2.2-0.1,3.7c0,1.5,0,3.5,0,6
		c0,2.5,0,5.6,0,9.5v14.2c0,3.6,0.2,6.8,0.6,9.5c0.4,2.7,0.9,5,1.6,6.9c0.7,1.9,1.5,3.6,2.4,4.9c1,1.3,2,2.5,3.1,3.5
		c2.5,2.3,5,3.8,7.4,4.5c2.4,0.7,5.1,1,8.2,1c3.3,0,6.3-0.7,9.2-2c2.9-1.3,5.2-3,7-5.2c2.5-2.9,4.1-6.4,4.8-10.5
		c0.8-4.1,1.1-8.7,1.1-14v-12.7c0-3.9,0-7.1,0-9.5c0-2.5,0-4.5-0.1-6c0-1.5-0.1-2.8-0.1-3.7c0-0.9-0.1-1.8-0.1-2.6
		c-0.1-1.6-0.4-2.9-0.8-3.8s-1.6-1.5-3.3-1.8c-0.4-0.1-1-0.1-1.7-0.2c-0.8,0-1.4-0.1-1.8-0.1c-0.6,0-0.8-0.3-0.8-0.8
		c0-0.6,0.6-0.8,1.7-0.8c1.2,0,2.4,0,3.7,0.1c1.3,0,2.4,0.1,3.5,0.1c1.1,0,2,0,2.8,0.1c0.8,0,1.2,0.1,1.4,0.1c0.4,0,1.6,0,3.5-0.1
		c1.9-0.1,3.7-0.1,5.3-0.1c1.1,0,1.7,0.3,1.7,0.8c0,0.6-0.3,0.8-0.8,0.8c-0.4,0-0.8,0-1.2,0c-0.3,0-0.8,0.1-1.4,0.2
		c-1.4,0.3-2.4,0.9-2.8,1.8c-0.4,0.9-0.7,2.1-0.9,3.8c-0.1,0.8-0.1,1.7-0.1,2.6c0,0.9,0,2.1,0,3.7c0,1.5,0,3.5,0,6
		c0,2.5,0,5.6,0,9.5v10.8c0,2.8-0.1,5.6-0.4,8.4c-0.2,2.8-0.7,5.6-1.4,8.2c-0.7,2.7-1.7,5.2-3,7.6c-1.3,2.4-2.9,4.4-5,6.2
		c-1.9,1.7-3.8,3-5.8,3.9c-1.9,1-3.8,1.7-5.7,2.2c-1.9,0.5-3.7,0.9-5.5,1c-1.8,0.2-3.4,0.2-4.9,0.2c-0.9,0-2.1,0-3.8-0.1
		c-1.7-0.1-3.5-0.4-5.6-0.8c-2.1-0.5-4.2-1.2-6.4-2.1c-2.2-1-4.2-2.3-6-4c-1.3-1.2-2.5-2.6-3.6-4.1c-1.1-1.5-2.1-3.4-2.9-5.4
		c-0.8-2.1-1.5-4.5-2-7.3c-0.5-2.8-0.7-6-0.7-9.8V825.3z"/>
	<path d="M352.9,873.2c-2.8-0.4-5.2-1.1-7.4-2.1c-0.7-0.4-1.2-0.8-1.3-1.2c-0.2-0.4-0.2-1.3-0.2-2.6c0-2.5,0.1-4.7,0.2-6.6
		c0.2-1.9,0.3-3.2,0.4-4.1c0-1.1,0.3-1.7,0.8-1.7c0.6,0,1,0.4,1,1.2c0,0.4,0,0.9,0.1,1.6c0,0.7,0.1,1.4,0.3,2.1
		c0.4,1.8,1.1,3.4,2.3,4.6c1.1,1.3,2.4,2.3,4,3.1c1.5,0.8,3.2,1.4,5,1.7c1.8,0.4,3.6,0.5,5.3,0.5c5.2,0,9.2-1.3,11.8-3.9
		c2.6-2.6,3.9-5.8,3.9-9.6c0-1.8-0.3-3.5-0.8-4.9c-0.5-1.4-1.3-2.8-2.4-4.1c-1.1-1.3-2.4-2.6-4.1-4c-1.7-1.3-3.7-2.9-6-4.6l-4.8-3.6
		c-5.6-4.2-9.5-8-11.7-11.4c-2.2-3.4-3.3-6.8-3.3-10.3c0-2.9,0.6-5.6,1.7-8c1.1-2.4,2.7-4.4,4.8-6c2.1-1.6,4.5-2.9,7.3-3.7
		c2.8-0.9,6-1.3,9.5-1.3c2.1,0,4.1,0.1,6,0.4c1.9,0.2,3.5,0.5,4.8,0.8c1,0.2,1.8,0.4,2.3,0.4c0.5,0,1,0.1,1.4,0.1
		c0.7,0,1.1,0.2,1.1,0.7c0,0.2-0.1,1.2-0.2,2.9c-0.2,1.7-0.2,4.3-0.2,7.8c0,1.5-0.3,2.3-0.8,2.3c-0.4,0-0.6-0.1-0.7-0.4
		c-0.1-0.2-0.2-0.6-0.2-1c-0.1-0.6-0.3-1.5-0.6-2.6s-0.6-1.9-1-2.4c-0.2-0.3-0.5-0.8-1.1-1.3c-0.6-0.6-1.4-1.1-2.4-1.7
		c-1.1-0.6-2.4-1-4-1.4c-1.6-0.4-3.6-0.6-6-0.6c-3.8,0-7.1,0.9-9.8,2.8c-2.7,1.9-4.1,4.6-4.1,8.2c0,1.6,0.2,3.1,0.7,4.4
		c0.4,1.3,1.2,2.7,2.3,4c1.1,1.3,2.5,2.7,4.2,4c1.7,1.4,3.9,3,6.5,4.7l3,2c3.2,2.1,5.8,4.2,8,6.2c2.2,2,3.9,4,5.3,6
		c1.3,1.9,2.3,3.9,2.9,6c0.6,2,0.9,4.1,0.9,6.2c0,3-0.7,6-2.1,9c-1.4,3-3.9,5.8-7.7,8.2c-2.2,1.4-4.8,2.4-7.9,2.9
		c-3,0.5-6,0.7-8.8,0.7C358.3,873.8,355.7,873.6,352.9,873.2z"/>
	<path d="M439.5,843.1c0,4.9,0,9.3,0.1,13.1c0,3.8,0.2,6.7,0.4,8.8c0.2,1.5,0.5,2.7,1,3.6c0.5,0.9,1.5,1.5,3.1,1.7
		c0.7,0.2,1.6,0.3,2.6,0.4c1,0.1,1.7,0.1,2.2,0.1c0.6,0,0.8,0.3,0.8,0.8c0,0.6-0.6,0.8-1.7,0.8c-1.4,0-2.9,0-4.3-0.1
		c-1.5,0-2.8-0.1-4-0.1c-1.2,0-2.3-0.1-3.1-0.1c-0.8,0-1.3-0.1-1.5-0.1c-0.2,0-0.7,0-1.5,0.1c-0.8,0-1.8,0.1-3,0.1
		c-1.2,0-2.3,0.1-3.5,0.1c-1.2,0-2.1,0.1-2.9,0.1c-1.1,0-1.7-0.3-1.7-0.8c0-0.5,0.3-0.7,0.8-0.7c0.5,0,1,0,1.5-0.1
		c0.6-0.1,1.1-0.2,1.5-0.4c1.1-0.2,1.9-0.8,2.3-1.8c0.4-1,0.7-2.2,0.8-3.7c0.2-2.1,0.4-5,0.4-8.8c0-3.8,0.1-8.2,0.1-13.1v-42.5
		l-15.1,0.2c-3.3,0.1-5.7,0.3-7.2,0.8c-1.5,0.4-2.6,1.3-3.4,2.4c-0.6,0.9-1,1.5-1.2,2c-0.2,0.4-0.3,0.9-0.5,1.2
		c-0.2,0.6-0.5,1-1.1,1c-0.2,0-0.3-0.1-0.5-0.2c-0.2-0.1-0.2-0.3-0.2-0.7c0-0.2,0.1-0.9,0.4-2c0.2-1.1,0.5-2.3,0.8-3.5
		c0.3-1.2,0.5-2.4,0.8-3.5c0.2-1.1,0.4-1.7,0.4-2c0.2-0.3,0.3-0.7,0.5-1.2c0.2-0.5,0.4-0.7,0.5-0.7c0.4,0,0.9,0.2,1.5,0.5
		c0.6,0.3,1.7,0.6,3.1,0.7c1.5,0.2,3.1,0.3,4.8,0.4c1.7,0.1,2.8,0.1,3.5,0.1h39.5c1.7,0,3.2,0,4.4-0.1c1.2-0.1,2.2-0.2,3.1-0.4
		c0.8-0.2,1.4-0.3,1.9-0.4c0.5-0.1,0.8-0.1,1.1-0.1c0.3,0,0.5,0.4,0.5,1.2c0,0.8,0,1.8-0.1,3c0,1.2-0.1,2.4-0.1,3.5
		c0,1.2-0.1,2.2-0.1,3.2c0,1-0.1,1.6-0.1,1.9c0,0.9-0.3,1.3-1,1.3c-0.2,0-0.4-0.1-0.5-0.4c-0.1-0.2-0.2-0.7-0.3-1.4l-0.1-1.1
		c-0.1-0.8-0.3-1.5-0.7-2.1c-0.4-0.6-1.1-1.2-2-1.7c-0.9-0.5-2.2-0.9-3.8-1.2c-1.6-0.3-3.7-0.5-6.1-0.5l-13.1-0.2V843.1z"/>
	<path d="M489.2,825.3c0-3.9,0-7.1,0-9.5c0-2.5,0-4.4,0-6c0-1.6,0-2.8-0.1-3.7c0-0.9-0.1-1.8-0.2-2.6c-0.2-1.7-0.5-3.1-1-3.9
		c-0.5-0.9-1.6-1.4-3.3-1.7c-0.4-0.1-1-0.1-1.7-0.2c-0.8,0-1.4-0.1-1.8-0.1c-0.6,0-0.8-0.3-0.8-0.8c0-0.6,0.6-0.8,1.7-0.8
		c1.2,0,2.5,0,3.9,0.1c1.4,0,2.7,0.1,3.9,0.1c1.2,0,2.2,0,3.1,0.1c0.9,0,1.4,0.1,1.5,0.1c0.2,0,0.9,0,2-0.1c1.1,0,2.3-0.1,3.7-0.1
		c1.3,0,2.7,0,4.1-0.1c1.4,0,2.5-0.1,3.3-0.1c3.3,0,6.7,0.3,10.2,0.8c3.5,0.5,6.6,1.7,9.3,3.6c0.6,0.5,1.4,1.1,2.2,2s1.6,1.8,2.4,3
		c0.8,1.2,1.4,2.5,1.9,4c0.5,1.5,0.8,3.1,0.8,4.8c0,3.7-0.9,7.5-2.8,11.2c-1.9,3.8-5.2,7.7-10.1,11.8c4.3,5.4,8.3,10.3,11.9,14.8
		c3.6,4.4,7,8.3,10,11.4c2.8,2.9,5.1,4.7,6.9,5.5c1.8,0.8,3.4,1.3,4.8,1.5c1,0.2,1.8,0.3,2.4,0.3c0.6,0,1,0.1,1.3,0.1
		c0.6,0,1,0.3,1,0.8c0,0.3-0.2,0.5-0.5,0.7c-0.4,0.1-1,0.2-2,0.2h-6.5c-3,0-5.3-0.2-6.8-0.5s-3-0.8-4.3-1.5c-2.3-1.2-4.5-3-6.6-5.5
		c-2.1-2.5-4.7-5.6-7.7-9.4c-1.1-1.3-2.2-2.8-3.3-4.2c-1.1-1.5-2.2-2.9-3.2-4.2c-1-1.3-1.9-2.5-2.7-3.6c-0.8-1.1-1.5-2-2.1-2.7
		c-0.4-0.4-0.9-0.6-1.4-0.6L499,840c-0.5,0-0.7,0.3-0.7,0.8v2.4c0,4.9,0,9.3,0.1,13c0,3.8,0.2,6.7,0.4,8.7c0.2,1.5,0.5,2.7,1,3.6
		c0.5,0.9,1.6,1.5,3.2,1.7c0.7,0.2,1.5,0.3,2.5,0.4c1,0.1,1.7,0.1,2.1,0.1c0.6,0,0.8,0.3,0.8,0.8c0,0.6-0.6,0.8-1.7,0.8
		c-1.4,0-2.9,0-4.3-0.1c-1.5,0-2.8-0.1-4-0.1c-1.2,0-2.3-0.1-3.1-0.1c-0.8,0-1.3-0.1-1.4-0.1c-1.6,0.1-2.9,0.1-4,0.2
		c-1.1,0-2.2,0.1-3.4,0.1c-1.2,0-2.2,0.1-3,0.1c-1.1,0-1.7-0.3-1.7-0.8c0-0.6,0.3-0.8,0.8-0.8c0.5,0,1,0,1.6-0.1
		c0.6-0.1,1.1-0.2,1.6-0.4c1-0.2,1.7-0.8,2-1.7c0.3-0.9,0.5-2.1,0.8-3.6c0.3-2.1,0.5-5,0.5-8.8c0-3.8,0.1-8.2,0.1-13.1V825.3z
		 M498.3,833.8c0,0.6,0.2,1,0.7,1.3c0.4,0.2,1,0.4,1.8,0.6c0.8,0.2,1.7,0.3,2.8,0.5c1.1,0.2,2.2,0.3,3.4,0.4
		c1.2,0.1,2.4,0.1,3.6,0.1c1.3,0,2.6-0.1,3.9-0.2c1.3-0.2,2.7-0.7,3.9-1.5c1.8-1.2,3.3-3.1,4.5-5.7c1.2-2.6,1.8-5.9,1.8-9.8
		c0-6.3-1.6-11.2-4.8-14.7c-3.2-3.5-7.6-5.2-13.3-5.2c-1.6,0-3.1,0.1-4.5,0.2c-1.4,0.1-2.4,0.3-3,0.4c-0.6,0.3-0.8,0.7-0.8,1.2
		V833.8z"/>
	<path d="M578.7,843.1c0,4.9,0,9.3,0.1,13.1c0,3.8,0.2,6.7,0.4,8.8c0.2,1.5,0.4,2.7,0.8,3.6c0.4,0.9,1.4,1.5,3,1.7
		c0.8,0.2,1.7,0.3,2.6,0.4c1,0.1,1.7,0.1,2.1,0.1c0.6,0,0.8,0.3,0.8,0.8c0,0.6-0.6,0.8-1.7,0.8c-1.4,0-2.9,0-4.4-0.1
		c-1.5,0-2.9-0.1-4.2-0.1c-1.3,0-2.3-0.1-3.2-0.1c-0.8,0-1.3-0.1-1.4-0.1c-0.2,0-0.6,0-1.4,0.1c-0.8,0-1.7,0.1-2.8,0.1
		c-1.1,0-2.2,0.1-3.3,0.1c-1.1,0-2.1,0.1-2.9,0.1c-1.1,0-1.7-0.3-1.7-0.8c0-0.6,0.3-0.8,0.8-0.8c0.5,0,1,0,1.6-0.1
		c0.6-0.1,1.1-0.2,1.6-0.4c1-0.2,1.7-0.8,2-1.7c0.3-0.9,0.6-2.1,0.7-3.6c0.2-2.1,0.4-5,0.5-8.8c0.1-3.8,0.1-8.2,0.1-13.1v-17.8
		c0-3.9,0-7.1,0-9.5c0-2.5,0-4.4,0-6c0-1.6,0-2.8-0.1-3.7c0-0.9-0.1-1.8-0.2-2.6c-0.2-1.7-0.5-3-1-3.9c-0.5-0.8-1.3-1.4-2.4-1.6
		c-0.6-0.2-1.2-0.3-1.8-0.3c-0.6,0-1-0.1-1.4-0.1c-0.6,0-0.8-0.3-0.8-0.8c0-0.6,0.6-0.8,1.7-0.8c0.9,0,1.9,0,3,0.1
		c1.1,0,2.2,0.1,3.3,0.1c1.1,0,2.1,0,2.9,0.1c0.8,0,1.3,0.1,1.4,0.1c0.1,0,0.5,0,1.4-0.1c0.8,0,1.8-0.1,2.8-0.1c1.1,0,2.2,0,3.4-0.1
		c1.1,0,2.1-0.1,2.9-0.1c1.1,0,1.7,0.3,1.7,0.8c0,0.6-0.3,0.8-0.8,0.8c-0.4,0-0.8,0-1.2,0c-0.3,0-0.8,0.1-1.4,0.2
		c-1.4,0.3-2.4,0.9-2.8,1.7c-0.4,0.8-0.7,2.1-0.9,3.9c0,0.8,0,1.6-0.1,2.6c0,0.9-0.1,2.2-0.1,3.7c0,1.5,0,3.5,0,6c0,2.5,0,5.6,0,9.5
		V843.1z"/>
	<path d="M615.5,825.3c0-3.9,0-7.1,0-9.5c0-2.5,0-4.4,0-6c0-1.6,0-2.8-0.1-3.7c0-0.9-0.1-1.8-0.2-2.6c-0.2-1.7-0.5-3.1-1-3.9
		c-0.5-0.9-1.6-1.4-3.3-1.7c-0.4-0.1-1-0.1-1.7-0.2c-0.8,0-1.4-0.1-1.8-0.1c-0.6,0-0.8-0.3-0.8-0.8c0-0.6,0.6-0.8,1.7-0.8
		c1.2,0,2.5,0,3.8,0.1c1.3,0,2.6,0.1,3.8,0.1c1.2,0,2.2,0,3,0.1c0.8,0,1.3,0.1,1.5,0.1c0.1,0,0.7,0,1.9,0c1.2,0,2.6,0,4.3,0
		c1.7,0,3.6,0,5.6,0c2.1,0,4,0,5.8,0c1.8,0,3.4,0,4.8,0c1.3,0,2.2,0,2.6,0c1-0.1,2-0.2,2.9-0.3c0.9-0.1,1.5-0.2,1.9-0.3
		c0.2-0.1,0.5-0.2,0.7-0.3s0.5-0.2,0.7-0.2c0.3,0,0.5,0.3,0.5,1c0,0.4-0.1,0.9-0.3,1.6c-0.2,0.7-0.4,1.7-0.5,3.2
		c0,0.2,0,0.7-0.1,1.3c0,0.6-0.1,1.2-0.2,2c-0.1,0.7-0.1,1.4-0.2,2c0,0.6-0.1,1.1-0.2,1.4c-0.1,0.2-0.2,0.5-0.4,0.7
		c-0.2,0.2-0.4,0.4-0.6,0.4c-0.6,0-0.8-0.4-0.8-1.3c0-0.4,0-0.9-0.1-1.6c-0.1-0.7-0.2-1.3-0.5-2c-0.2-0.4-0.4-0.8-0.7-1.1
		c-0.3-0.3-0.7-0.6-1.3-0.8c-0.6-0.2-1.3-0.5-2.1-0.7c-0.9-0.2-2-0.4-3.5-0.5c-0.5-0.1-1.5-0.1-3-0.2c-1.5,0-3.1-0.1-4.8-0.1
		c-1.7,0-3.3-0.1-4.7-0.1c-1.4,0-2.3,0-2.6,0c-0.4,0-0.6,0.4-0.6,1.1v27.5c0,0.7,0.2,1.1,0.6,1.1c0.3,0,1.3,0,2.9,0
		c1.7,0,3.5,0,5.5,0c2,0,3.8,0,5.6-0.1c1.7,0,2.9-0.1,3.6-0.2c1.3-0.2,2.3-0.3,3.1-0.4c0.8-0.1,1.5-0.5,2-1c0.9-0.9,1.4-1.3,1.5-1.3
		c0.4,0,0.6,0.3,0.6,0.8c0,0.3-0.1,0.9-0.3,1.8c-0.2,0.9-0.4,2.1-0.5,3.8c-0.2,1-0.3,2.3-0.4,3.7c-0.1,1.5-0.1,2.4-0.1,2.8
		c0,0.4-0.1,0.8-0.2,1.3c-0.1,0.4-0.4,0.7-0.8,0.7c-0.5,0-0.7-0.3-0.7-1c0-0.5,0-1-0.1-1.5c0-0.6-0.2-1.1-0.4-1.8
		c-0.2-0.7-0.6-1.3-1.3-1.9c-0.7-0.6-2-1-4.1-1.2c-0.7-0.1-1.9-0.2-3.5-0.2c-1.6-0.1-3.2-0.1-4.9-0.2c-1.7,0-3.2-0.1-4.6-0.1
		s-2.4,0-2.9,0c-0.5,0-0.7,0.2-0.7,0.7v8.4c0,0.9,0,2.2,0,3.9c0,1.7,0,3.4,0,5.2c0,1.8,0,3.5,0,5.1c0,1.5,0,2.5,0,3
		c0.1,1.7,0.3,3,0.6,4.1c0.3,1.1,0.9,1.9,1.8,2.5c0.9,0.6,2.2,1,3.7,1.2c1.6,0.2,3.7,0.3,6.3,0.3c1.3,0,3.1,0,5.2-0.1
		c2.1-0.1,3.9-0.4,5.2-1c1.3-0.6,2.4-1.4,3.2-2.4c0.8-1,1.3-2.5,1.6-4.6c0.2-1,0.6-1.5,1.1-1.5c0.3,0,0.5,0.2,0.6,0.5
		c0.1,0.3,0.1,0.7,0.1,1.1c0,0.2,0,0.7-0.1,1.5c-0.1,0.8-0.2,1.8-0.4,2.9c-0.2,1.1-0.3,2.1-0.5,3.1c-0.2,1-0.3,1.8-0.5,2.3
		c-0.2,0.6-0.4,1.1-0.7,1.5c-0.3,0.4-0.6,0.6-1,0.8c-0.4,0.2-0.9,0.3-1.6,0.3c-0.7,0-1.5,0.1-2.6,0.1c-4,0-7.5,0-10.5-0.1
		c-3-0.1-5.6-0.2-7.7-0.2c-2.2-0.2-4-0.2-5.5-0.2c-1.3,0-2.4,0-3.2,0c-0.2,0-0.7,0-1.5,0c-0.9,0-1.9,0-3,0.1c-1,0.1-2.1,0.1-3.2,0.2
		c-1.1,0-2,0.1-2.9,0.1c-1.1,0-1.7-0.3-1.7-0.8c0-0.6,0.3-0.8,0.8-0.8c0.5,0,1-0.1,1.6-0.2c0.6-0.1,1.1-0.2,1.6-0.3
		c1-0.2,1.7-0.7,2-1.7c0.3-1,0.5-2.2,0.8-3.7c0.3-2.1,0.5-5,0.5-8.8c0-3.8,0.1-8.2,0.1-13.1V825.3z"/>
	<path d="M683.9,873.5c-2.7-0.5-5.3-1.3-7.7-2.5c-0.9-0.4-1.4-0.9-1.5-1.4c-0.2-0.5-0.2-1.6-0.2-3.2c0-3,0.1-5.6,0.2-7.9
		c0.2-2.2,0.3-3.8,0.4-4.8c0.1-1.3,0.4-1.9,1-1.9c0.6,0,0.8,0.4,0.8,1.3c0,0.6,0,1.2,0.1,2c0,0.8,0.1,1.6,0.3,2.4
		c0.5,2.2,1.3,4.1,2.4,5.7c1.1,1.5,2.5,2.8,4.1,3.7c1.6,1,3.4,1.6,5.3,2.1c1.9,0.4,3.8,0.7,5.8,0.7c2.9,0,5.4-0.5,7.5-1.4
		c2.1-1,3.9-2.2,5.3-3.6c1.4-1.5,2.4-3.2,3.2-5.1s1.1-3.8,1.1-5.7c0-2.1-0.2-3.9-0.7-5.7c-0.5-1.7-1.2-3.4-2.3-5
		c-1.1-1.6-2.5-3.3-4.2-5c-1.7-1.7-3.9-3.6-6.4-5.8l-5.4-4.4c-3.2-2.6-5.8-5-7.7-7.3c-2-2.2-3.6-4.4-4.7-6.5
		c-1.2-2.1-1.9-4.1-2.4-6.1c-0.4-1.9-0.7-3.9-0.7-6c0-3.2,0.6-6.1,1.7-8.7c1.1-2.6,2.8-4.9,4.9-6.8c2.1-1.9,4.7-3.4,7.7-4.4
		c3-1,6.4-1.5,10.2-1.5c2.3,0,4.3,0.1,6.1,0.3c1.8,0.2,3.4,0.5,4.9,0.9c1.1,0.2,2,0.4,2.6,0.5c0.6,0.1,1.1,0.1,1.6,0.1
		c0.8,0,1.2,0.3,1.2,0.8c0,0.3-0.1,1.5-0.2,3.5c-0.2,2-0.2,5.1-0.2,9.1c0,1.8-0.3,2.7-0.8,2.7c-0.4,0-0.6-0.1-0.7-0.4
		c-0.1-0.3-0.2-0.7-0.2-1.1c-0.1-0.7-0.3-1.7-0.5-3c-0.3-1.3-0.6-2.3-1-2.9c-0.2-0.3-0.5-0.8-1.1-1.5c-0.6-0.7-1.4-1.4-2.6-2.1
		c-1.2-0.7-2.6-1.3-4.5-1.8c-1.8-0.5-4.1-0.8-6.8-0.8c-4.1,0-7.6,1.2-10.4,3.6c-2.8,2.4-4.2,5.8-4.2,10.2c0,1.7,0.2,3.2,0.7,4.7
		c0.4,1.5,1.2,3,2.3,4.5c1.1,1.5,2.6,3.1,4.5,4.9c1.9,1.7,4.2,3.7,7.1,6l3.3,2.6c3.5,2.8,6.4,5.4,8.6,7.7s4,4.7,5.4,6.8
		c1.3,2.2,2.2,4.4,2.7,6.5c0.5,2.2,0.7,4.5,0.7,6.8c0,1.2-0.1,2.6-0.4,4.3c-0.3,1.7-0.8,3.4-1.5,5.2c-0.8,1.8-1.8,3.6-3.1,5.4
		c-1.3,1.8-3,3.4-5.1,4.8c-2.5,1.8-5.4,3.1-8.4,3.9c-3.1,0.8-6.3,1.1-9.5,1.1C689.4,874.2,686.6,873.9,683.9,873.5z"/>
</g>
</svg>
